<svg xmlns="http://www.w3.org/2000/svg" viewBox="0 0 512 512">
  <defs>
    <linearGradient id="bg" x1="64" x2="448" y1="48" y2="464" gradientUnits="userSpaceOnUse">
      <stop stop-color="#38bdf8"/>
      <stop offset=".55" stop-color="#6366f1"/>
      <stop offset="1" stop-color="#a855f7"/>
    </linearGradient>
    <linearGradient id="glow" x1="148" x2="376" y1="116" y2="372" gradientUnits="userSpaceOnUse">
      <stop stop-color="#eff6ff" stop-opacity=".98"/>
      <stop offset="1" stop-color="#dbeafe" stop-opacity=".72"/>
    </linearGradient>
  </defs>
  <rect width="512" height="512" rx="136" fill="#040814"/>
  <rect x="28" y="28" width="456" height="456" rx="116" fill="url(#bg)" opacity=".18"/>
  <rect x="52" y="52" width="408" height="408" rx="104" fill="none" stroke="#ffffff" stroke-opacity=".16"/>
  <path fill="url(#bg)" d="M278 434c-12 14-34 6-34-12V311a38 38 0 0 0-38-38H118c-15 0-24-17-15-30l58-82c17-23 0-55-29-55H49c-15 0-24-17-15-30l69-96c4-6 11-9 18-9h230c15 0 24 17 15 30l-58 82c-17 23 0 55 29 55h87c16 0 25 19 15 31L278 434Z"/>
  <path fill="url(#glow)" d="M145 113h195l-42 59c-13 18 0 43 22 43h64l-111 156V296a32 32 0 0 0-32-32h-82l49-68c13-18 0-43-22-43H99l46-40Z" opacity=".88"/>
  <circle cx="379" cy="132" r="24" fill="#7dd3fc" opacity=".82"/>
  <circle cx="141" cy="390" r="18" fill="#c4b5fd" opacity=".62"/>
</svg>
