<svg xmlns="http://www.w3.org/2000/svg" viewBox="0 0 512 512">
  <defs>
    <linearGradient id="mask-bg" x1="80" x2="432" y1="64" y2="448" gradientUnits="userSpaceOnUse">
      <stop stop-color="#38bdf8"/>
      <stop offset=".52" stop-color="#6366f1"/>
      <stop offset="1" stop-color="#a855f7"/>
    </linearGradient>
    <linearGradient id="mask-fill" x1="164" x2="348" y1="132" y2="352" gradientUnits="userSpaceOnUse">
      <stop stop-color="#f8fbff"/>
      <stop offset="1" stop-color="#dbeafe"/>
    </linearGradient>
  </defs>
  <rect width="512" height="512" fill="#040814"/>
  <rect x="44" y="44" width="424" height="424" rx="132" fill="url(#mask-bg)" opacity=".22"/>
  <circle cx="256" cy="256" r="188" fill="#060d1d"/>
  <path fill="url(#mask-bg)" d="M281 391c-11 14-33 6-33-11v-78a34 34 0 0 0-34-34h-75c-14 0-22-15-14-27l50-70c15-21 0-49-25-49H78c-14 0-22-15-14-27l58-80c4-5 10-8 17-8h214c14 0 22 15 14 27l-50 70c-15 21 0 49 25 49h74c14 0 22 16 13 28L281 391Z"/>
  <path fill="url(#mask-fill)" d="M154 138h179l-37 53c-12 16 0 38 20 38h58l-98 140v-67a28 28 0 0 0-28-28h-76l43-60c12-16 0-38-20-38h-63l22-38Z" opacity=".9"/>
  <circle cx="357" cy="155" r="20" fill="#7dd3fc" opacity=".8"/>
  <circle cx="165" cy="352" r="15" fill="#c4b5fd" opacity=".62"/>
</svg>
